<svg version="1.1" baseProfile="tiny" xmlns="http://www.w3.org/2000/svg" width="250" height="250" ><rect xmlns="http://www.w3.org/2000/svg" shape-rendering="optimizeSpeed" width="250" height="250" fill="#fff" x="0" y="0"/><rect shape-rendering="optimizeSpeed" fill="#000" x="10" y="10"  width="11.052380952380952" height="11.052380952380952"></rect><rect shape-rendering="optimizeSpeed" fill="#000" x="20.952380952380953" y="10"  width="11.052380952380952" height="11.052380952380952"></rect><rect shape-rendering="optimizeSpeed" fill="#000" x="31.904761904761905" y="10"  width="11.052380952380952" height="11.052380952380952"></rect><rect shape-rendering="optimizeSpeed" fill="#000" x="42.85714285714286" y="10"  width="11.052380952380952" height="11.052380952380952"></rect><rect shape-rendering="optimizeSpeed" fill="#000" x="53.80952380952381" y="10"  width="11.052380952380952" height="11.052380952380952"></rect><rect shape-rendering="optimizeSpeed" fill="#000" x="64.76190476190476" y="10"  width="11.052380952380952" height="11.052380952380952"></rect><rect shape-rendering="optimizeSpeed" fill="#000" x="75.71428571428572" y="10"  width="11.052380952380952" height="11.052380952380952"></rect><rect shape-rendering="optimizeSpeed" fill="#000" x="97.61904761904762" y="10"  width="11.052380952380952" height="11.052380952380952"></rect><rect shape-rendering="optimizeSpeed" fill="#000" x="119.52380952380952" y="10"  width="11.052380952380952" height="11.052380952380952"></rect><rect shape-rendering="optimizeSpeed" fill="#000" x="130.47619047619048" y="10"  width="11.052380952380952" height="11.052380952380952"></rect><rect shape-rendering="optimizeSpeed" fill="#000" x="141.42857142857144" y="10"  width="11.052380952380952" height="11.052380952380952"></rect><rect shape-rendering="optimizeSpeed" fill="#000" x="163.33333333333334" y="10"  width="11.052380952380952" height="11.052380952380952"></rect><rect shape-rendering="optimizeSpeed" fill="#000" x="174.28571428571428" y="10"  width="11.052380952380952" height="11.052380952380952"></rect><rect shape-rendering="optimizeSpeed" fill="#000" x="185.23809523809524" y="10"  width="11.052380952380952" height="11.052380952380952"></rect><rect shape-rendering="optimizeSpeed" fill="#000" x="196.1904761904762" y="10"  width="11.052380952380952" height="11.052380952380952"></rect><rect shape-rendering="optimizeSpeed" fill="#000" x="207.14285714285714" y="10"  width="11.052380952380952" height="11.052380952380952"></rect><rect shape-rendering="optimizeSpeed" fill="#000" x="218.0952380952381" y="10"  width="11.052380952380952" height="11.052380952380952"></rect><rect shape-rendering="optimizeSpeed" fill="#000" x="229.04761904761904" y="10"  width="11.052380952380952" height="11.052380952380952"></rect><rect shape-rendering="optimizeSpeed" fill="#000" x="10" y="20.952380952380953"  width="11.052380952380952" height="11.052380952380952"></rect><rect shape-rendering="optimizeSpeed" fill="#000" x="75.71428571428572" y="20.952380952380953"  width="11.052380952380952" height="11.052380952380952"></rect><rect shape-rendering="optimizeSpeed" fill="#000" x="119.52380952380952" y="20.952380952380953"  width="11.052380952380952" height="11.052380952380952"></rect><rect shape-rendering="optimizeSpeed" fill="#000" x="130.47619047619048" y="20.952380952380953"  width="11.052380952380952" height="11.052380952380952"></rect><rect shape-rendering="optimizeSpeed" fill="#000" x="163.33333333333334" y="20.952380952380953"  width="11.052380952380952" height="11.052380952380952"></rect><rect shape-rendering="optimizeSpeed" fill="#000" x="229.04761904761904" y="20.952380952380953"  width="11.052380952380952" height="11.052380952380952"></rect><rect shape-rendering="optimizeSpeed" fill="#000" x="10" y="31.904761904761905"  width="11.052380952380952" height="11.052380952380952"></rect><rect shape-rendering="optimizeSpeed" fill="#000" x="31.904761904761905" y="31.904761904761905"  width="11.052380952380952" height="11.052380952380952"></rect><rect shape-rendering="optimizeSpeed" fill="#000" x="42.85714285714286" y="31.904761904761905"  width="11.052380952380952" height="11.052380952380952"></rect><rect shape-rendering="optimizeSpeed" fill="#000" x="53.80952380952381" y="31.904761904761905"  width="11.052380952380952" height="11.052380952380952"></rect><rect shape-rendering="optimizeSpeed" fill="#000" x="75.71428571428572" y="31.904761904761905"  width="11.052380952380952" height="11.052380952380952"></rect><rect shape-rendering="optimizeSpeed" fill="#000" x="97.61904761904762" y="31.904761904761905"  width="11.052380952380952" height="11.052380952380952"></rect><rect shape-rendering="optimizeSpeed" fill="#000" x="108.57142857142857" y="31.904761904761905"  width="11.052380952380952" height="11.052380952380952"></rect><rect shape-rendering="optimizeSpeed" fill="#000" x="130.47619047619048" y="31.904761904761905"  width="11.052380952380952" height="11.052380952380952"></rect><rect shape-rendering="optimizeSpeed" fill="#000" x="163.33333333333334" y="31.904761904761905"  width="11.052380952380952" height="11.052380952380952"></rect><rect shape-rendering="optimizeSpeed" fill="#000" x="185.23809523809524" y="31.904761904761905"  width="11.052380952380952" height="11.052380952380952"></rect><rect shape-rendering="optimizeSpeed" fill="#000" x="196.1904761904762" y="31.904761904761905"  width="11.052380952380952" height="11.052380952380952"></rect><rect shape-rendering="optimizeSpeed" fill="#000" x="207.14285714285714" y="31.904761904761905"  width="11.052380952380952" height="11.052380952380952"></rect><rect shape-rendering="optimizeSpeed" fill="#000" x="229.04761904761904" y="31.904761904761905"  width="11.052380952380952" height="11.052380952380952"></rect><rect shape-rendering="optimizeSpeed" fill="#000" x="10" y="42.85714285714286"  width="11.052380952380952" height="11.052380952380952"></rect><rect shape-rendering="optimizeSpeed" fill="#000" x="31.904761904761905" y="42.85714285714286"  width="11.052380952380952" height="11.052380952380952"></rect><rect shape-rendering="optimizeSpeed" fill="#000" x="42.85714285714286" y="42.85714285714286"  width="11.052380952380952" height="11.052380952380952"></rect><rect shape-rendering="optimizeSpeed" fill="#000" x="53.80952380952381" y="42.85714285714286"  width="11.052380952380952" height="11.052380952380952"></rect><rect shape-rendering="optimizeSpeed" fill="#000" x="75.71428571428572" y="42.85714285714286"  width="11.052380952380952" height="11.052380952380952"></rect><rect shape-rendering="optimizeSpeed" fill="#000" x="97.61904761904762" y="42.85714285714286"  width="11.052380952380952" height="11.052380952380952"></rect><rect shape-rendering="optimizeSpeed" fill="#000" x="108.57142857142857" y="42.85714285714286"  width="11.052380952380952" height="11.052380952380952"></rect><rect shape-rendering="optimizeSpeed" fill="#000" x="141.42857142857144" y="42.85714285714286"  width="11.052380952380952" height="11.052380952380952"></rect><rect shape-rendering="optimizeSpeed" fill="#000" x="163.33333333333334" y="42.85714285714286"  width="11.052380952380952" height="11.052380952380952"></rect><rect shape-rendering="optimizeSpeed" fill="#000" x="185.23809523809524" y="42.85714285714286"  width="11.052380952380952" height="11.052380952380952"></rect><rect shape-rendering="optimizeSpeed" fill="#000" x="196.1904761904762" y="42.85714285714286"  width="11.052380952380952" height="11.052380952380952"></rect><rect shape-rendering="optimizeSpeed" fill="#000" x="207.14285714285714" y="42.85714285714286"  width="11.052380952380952" height="11.052380952380952"></rect><rect shape-rendering="optimizeSpeed" fill="#000" x="229.04761904761904" y="42.85714285714286"  width="11.052380952380952" height="11.052380952380952"></rect><rect shape-rendering="optimizeSpeed" fill="#000" x="10" y="53.80952380952381"  width="11.052380952380952" height="11.052380952380952"></rect><rect shape-rendering="optimizeSpeed" fill="#000" x="31.904761904761905" y="53.80952380952381"  width="11.052380952380952" height="11.052380952380952"></rect><rect shape-rendering="optimizeSpeed" fill="#000" x="42.85714285714286" y="53.80952380952381"  width="11.052380952380952" height="11.052380952380952"></rect><rect shape-rendering="optimizeSpeed" fill="#000" x="53.80952380952381" y="53.80952380952381"  width="11.052380952380952" height="11.052380952380952"></rect><rect shape-rendering="optimizeSpeed" fill="#000" x="75.71428571428572" y="53.80952380952381"  width="11.052380952380952" height="11.052380952380952"></rect><rect shape-rendering="optimizeSpeed" fill="#000" x="97.61904761904762" y="53.80952380952381"  width="11.052380952380952" height="11.052380952380952"></rect><rect shape-rendering="optimizeSpeed" fill="#000" x="130.47619047619048" y="53.80952380952381"  width="11.052380952380952" height="11.052380952380952"></rect><rect shape-rendering="optimizeSpeed" fill="#000" x="163.33333333333334" y="53.80952380952381"  width="11.052380952380952" height="11.052380952380952"></rect><rect shape-rendering="optimizeSpeed" fill="#000" x="185.23809523809524" y="53.80952380952381"  width="11.052380952380952" height="11.052380952380952"></rect><rect shape-rendering="optimizeSpeed" fill="#000" x="196.1904761904762" y="53.80952380952381"  width="11.052380952380952" height="11.052380952380952"></rect><rect shape-rendering="optimizeSpeed" fill="#000" x="207.14285714285714" y="53.80952380952381"  width="11.052380952380952" height="11.052380952380952"></rect><rect shape-rendering="optimizeSpeed" fill="#000" x="229.04761904761904" y="53.80952380952381"  width="11.052380952380952" height="11.052380952380952"></rect><rect shape-rendering="optimizeSpeed" fill="#000" x="10" y="64.76190476190476"  width="11.052380952380952" height="11.052380952380952"></rect><rect shape-rendering="optimizeSpeed" fill="#000" x="75.71428571428572" y="64.76190476190476"  width="11.052380952380952" height="11.052380952380952"></rect><rect shape-rendering="optimizeSpeed" fill="#000" x="108.57142857142857" y="64.76190476190476"  width="11.052380952380952" height="11.052380952380952"></rect><rect shape-rendering="optimizeSpeed" fill="#000" x="119.52380952380952" y="64.76190476190476"  width="11.052380952380952" height="11.052380952380952"></rect><rect shape-rendering="optimizeSpeed" fill="#000" x="130.47619047619048" y="64.76190476190476"  width="11.052380952380952" height="11.052380952380952"></rect><rect shape-rendering="optimizeSpeed" fill="#000" x="141.42857142857144" y="64.76190476190476"  width="11.052380952380952" height="11.052380952380952"></rect><rect shape-rendering="optimizeSpeed" fill="#000" x="163.33333333333334" y="64.76190476190476"  width="11.052380952380952" height="11.052380952380952"></rect><rect shape-rendering="optimizeSpeed" fill="#000" x="229.04761904761904" y="64.76190476190476"  width="11.052380952380952" height="11.052380952380952"></rect><rect shape-rendering="optimizeSpeed" fill="#000" x="10" y="75.71428571428572"  width="11.052380952380952" height="11.052380952380952"></rect><rect shape-rendering="optimizeSpeed" fill="#000" x="20.952380952380953" y="75.71428571428572"  width="11.052380952380952" height="11.052380952380952"></rect><rect shape-rendering="optimizeSpeed" fill="#000" x="31.904761904761905" y="75.71428571428572"  width="11.052380952380952" height="11.052380952380952"></rect><rect shape-rendering="optimizeSpeed" fill="#000" x="42.85714285714286" y="75.71428571428572"  width="11.052380952380952" height="11.052380952380952"></rect><rect shape-rendering="optimizeSpeed" fill="#000" x="53.80952380952381" y="75.71428571428572"  width="11.052380952380952" height="11.052380952380952"></rect><rect shape-rendering="optimizeSpeed" fill="#000" x="64.76190476190476" y="75.71428571428572"  width="11.052380952380952" height="11.052380952380952"></rect><rect shape-rendering="optimizeSpeed" fill="#000" x="75.71428571428572" y="75.71428571428572"  width="11.052380952380952" height="11.052380952380952"></rect><rect shape-rendering="optimizeSpeed" fill="#000" x="97.61904761904762" y="75.71428571428572"  width="11.052380952380952" height="11.052380952380952"></rect><rect shape-rendering="optimizeSpeed" fill="#000" x="119.52380952380952" y="75.71428571428572"  width="11.052380952380952" height="11.052380952380952"></rect><rect shape-rendering="optimizeSpeed" fill="#000" x="141.42857142857144" y="75.71428571428572"  width="11.052380952380952" height="11.052380952380952"></rect><rect shape-rendering="optimizeSpeed" fill="#000" x="163.33333333333334" y="75.71428571428572"  width="11.052380952380952" height="11.052380952380952"></rect><rect shape-rendering="optimizeSpeed" fill="#000" x="174.28571428571428" y="75.71428571428572"  width="11.052380952380952" height="11.052380952380952"></rect><rect shape-rendering="optimizeSpeed" fill="#000" x="185.23809523809524" y="75.71428571428572"  width="11.052380952380952" height="11.052380952380952"></rect><rect shape-rendering="optimizeSpeed" fill="#000" x="196.1904761904762" y="75.71428571428572"  width="11.052380952380952" height="11.052380952380952"></rect><rect shape-rendering="optimizeSpeed" fill="#000" x="207.14285714285714" y="75.71428571428572"  width="11.052380952380952" height="11.052380952380952"></rect><rect shape-rendering="optimizeSpeed" fill="#000" x="218.0952380952381" y="75.71428571428572"  width="11.052380952380952" height="11.052380952380952"></rect><rect shape-rendering="optimizeSpeed" fill="#000" x="229.04761904761904" y="75.71428571428572"  width="11.052380952380952" height="11.052380952380952"></rect><rect shape-rendering="optimizeSpeed" fill="#000" x="130.47619047619048" y="86.66666666666667"  width="11.052380952380952" height="11.052380952380952"></rect><rect shape-rendering="optimizeSpeed" fill="#000" x="141.42857142857144" y="86.66666666666667"  width="11.052380952380952" height="11.052380952380952"></rect><rect shape-rendering="optimizeSpeed" fill="#000" x="10" y="97.61904761904762"  width="11.052380952380952" height="11.052380952380952"></rect><rect shape-rendering="optimizeSpeed" fill="#000" x="20.952380952380953" y="97.61904761904762"  width="11.052380952380952" height="11.052380952380952"></rect><rect shape-rendering="optimizeSpeed" fill="#000" x="31.904761904761905" y="97.61904761904762"  width="11.052380952380952" height="11.052380952380952"></rect><rect shape-rendering="optimizeSpeed" fill="#000" x="42.85714285714286" y="97.61904761904762"  width="11.052380952380952" height="11.052380952380952"></rect><rect shape-rendering="optimizeSpeed" fill="#000" x="75.71428571428572" y="97.61904761904762"  width="11.052380952380952" height="11.052380952380952"></rect><rect shape-rendering="optimizeSpeed" fill="#000" x="97.61904761904762" y="97.61904761904762"  width="11.052380952380952" height="11.052380952380952"></rect><rect shape-rendering="optimizeSpeed" fill="#000" x="108.57142857142857" y="97.61904761904762"  width="11.052380952380952" height="11.052380952380952"></rect><rect shape-rendering="optimizeSpeed" fill="#000" x="119.52380952380952" y="97.61904761904762"  width="11.052380952380952" height="11.052380952380952"></rect><rect shape-rendering="optimizeSpeed" fill="#000" x="130.47619047619048" y="97.61904761904762"  width="11.052380952380952" height="11.052380952380952"></rect><rect shape-rendering="optimizeSpeed" fill="#000" x="141.42857142857144" y="97.61904761904762"  width="11.052380952380952" height="11.052380952380952"></rect><rect shape-rendering="optimizeSpeed" fill="#000" x="152.38095238095238" y="97.61904761904762"  width="11.052380952380952" height="11.052380952380952"></rect><rect shape-rendering="optimizeSpeed" fill="#000" x="185.23809523809524" y="97.61904761904762"  width="11.052380952380952" height="11.052380952380952"></rect><rect shape-rendering="optimizeSpeed" fill="#000" x="196.1904761904762" y="97.61904761904762"  width="11.052380952380952" height="11.052380952380952"></rect><rect shape-rendering="optimizeSpeed" fill="#000" x="207.14285714285714" y="97.61904761904762"  width="11.052380952380952" height="11.052380952380952"></rect><rect shape-rendering="optimizeSpeed" fill="#000" x="229.04761904761904" y="97.61904761904762"  width="11.052380952380952" height="11.052380952380952"></rect><rect shape-rendering="optimizeSpeed" fill="#000" x="10" y="108.57142857142857"  width="11.052380952380952" height="11.052380952380952"></rect><rect shape-rendering="optimizeSpeed" fill="#000" x="20.952380952380953" y="108.57142857142857"  width="11.052380952380952" height="11.052380952380952"></rect><rect shape-rendering="optimizeSpeed" fill="#000" x="42.85714285714286" y="108.57142857142857"  width="11.052380952380952" height="11.052380952380952"></rect><rect shape-rendering="optimizeSpeed" fill="#000" x="64.76190476190476" y="108.57142857142857"  width="11.052380952380952" height="11.052380952380952"></rect><rect shape-rendering="optimizeSpeed" fill="#000" x="119.52380952380952" y="108.57142857142857"  width="11.052380952380952" height="11.052380952380952"></rect><rect shape-rendering="optimizeSpeed" fill="#000" x="130.47619047619048" y="108.57142857142857"  width="11.052380952380952" height="11.052380952380952"></rect><rect shape-rendering="optimizeSpeed" fill="#000" x="141.42857142857144" y="108.57142857142857"  width="11.052380952380952" height="11.052380952380952"></rect><rect shape-rendering="optimizeSpeed" fill="#000" x="152.38095238095238" y="108.57142857142857"  width="11.052380952380952" height="11.052380952380952"></rect><rect shape-rendering="optimizeSpeed" fill="#000" x="174.28571428571428" y="108.57142857142857"  width="11.052380952380952" height="11.052380952380952"></rect><rect shape-rendering="optimizeSpeed" fill="#000" x="185.23809523809524" y="108.57142857142857"  width="11.052380952380952" height="11.052380952380952"></rect><rect shape-rendering="optimizeSpeed" fill="#000" x="207.14285714285714" y="108.57142857142857"  width="11.052380952380952" height="11.052380952380952"></rect><rect shape-rendering="optimizeSpeed" fill="#000" x="229.04761904761904" y="108.57142857142857"  width="11.052380952380952" height="11.052380952380952"></rect><rect shape-rendering="optimizeSpeed" fill="#000" x="31.904761904761905" y="119.52380952380952"  width="11.052380952380952" height="11.052380952380952"></rect><rect shape-rendering="optimizeSpeed" fill="#000" x="75.71428571428572" y="119.52380952380952"  width="11.052380952380952" height="11.052380952380952"></rect><rect shape-rendering="optimizeSpeed" fill="#000" x="86.66666666666667" y="119.52380952380952"  width="11.052380952380952" height="11.052380952380952"></rect><rect shape-rendering="optimizeSpeed" fill="#000" x="108.57142857142857" y="119.52380952380952"  width="11.052380952380952" height="11.052380952380952"></rect><rect shape-rendering="optimizeSpeed" fill="#000" x="130.47619047619048" y="119.52380952380952"  width="11.052380952380952" height="11.052380952380952"></rect><rect shape-rendering="optimizeSpeed" fill="#000" x="152.38095238095238" y="119.52380952380952"  width="11.052380952380952" height="11.052380952380952"></rect><rect shape-rendering="optimizeSpeed" fill="#000" x="163.33333333333334" y="119.52380952380952"  width="11.052380952380952" height="11.052380952380952"></rect><rect shape-rendering="optimizeSpeed" fill="#000" x="174.28571428571428" y="119.52380952380952"  width="11.052380952380952" height="11.052380952380952"></rect><rect shape-rendering="optimizeSpeed" fill="#000" x="218.0952380952381" y="119.52380952380952"  width="11.052380952380952" height="11.052380952380952"></rect><rect shape-rendering="optimizeSpeed" fill="#000" x="229.04761904761904" y="119.52380952380952"  width="11.052380952380952" height="11.052380952380952"></rect><rect shape-rendering="optimizeSpeed" fill="#000" x="20.952380952380953" y="130.47619047619048"  width="11.052380952380952" height="11.052380952380952"></rect><rect shape-rendering="optimizeSpeed" fill="#000" x="31.904761904761905" y="130.47619047619048"  width="11.052380952380952" height="11.052380952380952"></rect><rect shape-rendering="optimizeSpeed" fill="#000" x="64.76190476190476" y="130.47619047619048"  width="11.052380952380952" height="11.052380952380952"></rect><rect shape-rendering="optimizeSpeed" fill="#000" x="86.66666666666667" y="130.47619047619048"  width="11.052380952380952" height="11.052380952380952"></rect><rect shape-rendering="optimizeSpeed" fill="#000" x="130.47619047619048" y="130.47619047619048"  width="11.052380952380952" height="11.052380952380952"></rect><rect shape-rendering="optimizeSpeed" fill="#000" x="174.28571428571428" y="130.47619047619048"  width="11.052380952380952" height="11.052380952380952"></rect><rect shape-rendering="optimizeSpeed" fill="#000" x="196.1904761904762" y="130.47619047619048"  width="11.052380952380952" height="11.052380952380952"></rect><rect shape-rendering="optimizeSpeed" fill="#000" x="218.0952380952381" y="130.47619047619048"  width="11.052380952380952" height="11.052380952380952"></rect><rect shape-rendering="optimizeSpeed" fill="#000" x="42.85714285714286" y="141.42857142857144"  width="11.052380952380952" height="11.052380952380952"></rect><rect shape-rendering="optimizeSpeed" fill="#000" x="64.76190476190476" y="141.42857142857144"  width="11.052380952380952" height="11.052380952380952"></rect><rect shape-rendering="optimizeSpeed" fill="#000" x="75.71428571428572" y="141.42857142857144"  width="11.052380952380952" height="11.052380952380952"></rect><rect shape-rendering="optimizeSpeed" fill="#000" x="86.66666666666667" y="141.42857142857144"  width="11.052380952380952" height="11.052380952380952"></rect><rect shape-rendering="optimizeSpeed" fill="#000" x="141.42857142857144" y="141.42857142857144"  width="11.052380952380952" height="11.052380952380952"></rect><rect shape-rendering="optimizeSpeed" fill="#000" x="152.38095238095238" y="141.42857142857144"  width="11.052380952380952" height="11.052380952380952"></rect><rect shape-rendering="optimizeSpeed" fill="#000" x="163.33333333333334" y="141.42857142857144"  width="11.052380952380952" height="11.052380952380952"></rect><rect shape-rendering="optimizeSpeed" fill="#000" x="174.28571428571428" y="141.42857142857144"  width="11.052380952380952" height="11.052380952380952"></rect><rect shape-rendering="optimizeSpeed" fill="#000" x="218.0952380952381" y="141.42857142857144"  width="11.052380952380952" height="11.052380952380952"></rect><rect shape-rendering="optimizeSpeed" fill="#000" x="229.04761904761904" y="141.42857142857144"  width="11.052380952380952" height="11.052380952380952"></rect><rect shape-rendering="optimizeSpeed" fill="#000" x="97.61904761904762" y="152.38095238095238"  width="11.052380952380952" height="11.052380952380952"></rect><rect shape-rendering="optimizeSpeed" fill="#000" x="108.57142857142857" y="152.38095238095238"  width="11.052380952380952" height="11.052380952380952"></rect><rect shape-rendering="optimizeSpeed" fill="#000" x="119.52380952380952" y="152.38095238095238"  width="11.052380952380952" height="11.052380952380952"></rect><rect shape-rendering="optimizeSpeed" fill="#000" x="130.47619047619048" y="152.38095238095238"  width="11.052380952380952" height="11.052380952380952"></rect><rect shape-rendering="optimizeSpeed" fill="#000" x="163.33333333333334" y="152.38095238095238"  width="11.052380952380952" height="11.052380952380952"></rect><rect shape-rendering="optimizeSpeed" fill="#000" x="174.28571428571428" y="152.38095238095238"  width="11.052380952380952" height="11.052380952380952"></rect><rect shape-rendering="optimizeSpeed" fill="#000" x="185.23809523809524" y="152.38095238095238"  width="11.052380952380952" height="11.052380952380952"></rect><rect shape-rendering="optimizeSpeed" fill="#000" x="196.1904761904762" y="152.38095238095238"  width="11.052380952380952" height="11.052380952380952"></rect><rect shape-rendering="optimizeSpeed" fill="#000" x="229.04761904761904" y="152.38095238095238"  width="11.052380952380952" height="11.052380952380952"></rect><rect shape-rendering="optimizeSpeed" fill="#000" x="10" y="163.33333333333334"  width="11.052380952380952" height="11.052380952380952"></rect><rect shape-rendering="optimizeSpeed" fill="#000" x="20.952380952380953" y="163.33333333333334"  width="11.052380952380952" height="11.052380952380952"></rect><rect shape-rendering="optimizeSpeed" fill="#000" x="31.904761904761905" y="163.33333333333334"  width="11.052380952380952" height="11.052380952380952"></rect><rect shape-rendering="optimizeSpeed" fill="#000" x="42.85714285714286" y="163.33333333333334"  width="11.052380952380952" height="11.052380952380952"></rect><rect shape-rendering="optimizeSpeed" fill="#000" x="53.80952380952381" y="163.33333333333334"  width="11.052380952380952" height="11.052380952380952"></rect><rect shape-rendering="optimizeSpeed" fill="#000" x="64.76190476190476" y="163.33333333333334"  width="11.052380952380952" height="11.052380952380952"></rect><rect shape-rendering="optimizeSpeed" fill="#000" x="75.71428571428572" y="163.33333333333334"  width="11.052380952380952" height="11.052380952380952"></rect><rect shape-rendering="optimizeSpeed" fill="#000" x="108.57142857142857" y="163.33333333333334"  width="11.052380952380952" height="11.052380952380952"></rect><rect shape-rendering="optimizeSpeed" fill="#000" x="130.47619047619048" y="163.33333333333334"  width="11.052380952380952" height="11.052380952380952"></rect><rect shape-rendering="optimizeSpeed" fill="#000" x="141.42857142857144" y="163.33333333333334"  width="11.052380952380952" height="11.052380952380952"></rect><rect shape-rendering="optimizeSpeed" fill="#000" x="152.38095238095238" y="163.33333333333334"  width="11.052380952380952" height="11.052380952380952"></rect><rect shape-rendering="optimizeSpeed" fill="#000" x="163.33333333333334" y="163.33333333333334"  width="11.052380952380952" height="11.052380952380952"></rect><rect shape-rendering="optimizeSpeed" fill="#000" x="174.28571428571428" y="163.33333333333334"  width="11.052380952380952" height="11.052380952380952"></rect><rect shape-rendering="optimizeSpeed" fill="#000" x="185.23809523809524" y="163.33333333333334"  width="11.052380952380952" height="11.052380952380952"></rect><rect shape-rendering="optimizeSpeed" fill="#000" x="207.14285714285714" y="163.33333333333334"  width="11.052380952380952" height="11.052380952380952"></rect><rect shape-rendering="optimizeSpeed" fill="#000" x="10" y="174.28571428571428"  width="11.052380952380952" height="11.052380952380952"></rect><rect shape-rendering="optimizeSpeed" fill="#000" x="75.71428571428572" y="174.28571428571428"  width="11.052380952380952" height="11.052380952380952"></rect><rect shape-rendering="optimizeSpeed" fill="#000" x="152.38095238095238" y="174.28571428571428"  width="11.052380952380952" height="11.052380952380952"></rect><rect shape-rendering="optimizeSpeed" fill="#000" x="196.1904761904762" y="174.28571428571428"  width="11.052380952380952" height="11.052380952380952"></rect><rect shape-rendering="optimizeSpeed" fill="#000" x="207.14285714285714" y="174.28571428571428"  width="11.052380952380952" height="11.052380952380952"></rect><rect shape-rendering="optimizeSpeed" fill="#000" x="218.0952380952381" y="174.28571428571428"  width="11.052380952380952" height="11.052380952380952"></rect><rect shape-rendering="optimizeSpeed" fill="#000" x="229.04761904761904" y="174.28571428571428"  width="11.052380952380952" height="11.052380952380952"></rect><rect shape-rendering="optimizeSpeed" fill="#000" x="10" y="185.23809523809524"  width="11.052380952380952" height="11.052380952380952"></rect><rect shape-rendering="optimizeSpeed" fill="#000" x="31.904761904761905" y="185.23809523809524"  width="11.052380952380952" height="11.052380952380952"></rect><rect shape-rendering="optimizeSpeed" fill="#000" x="42.85714285714286" y="185.23809523809524"  width="11.052380952380952" height="11.052380952380952"></rect><rect shape-rendering="optimizeSpeed" fill="#000" x="53.80952380952381" y="185.23809523809524"  width="11.052380952380952" height="11.052380952380952"></rect><rect shape-rendering="optimizeSpeed" fill="#000" x="75.71428571428572" y="185.23809523809524"  width="11.052380952380952" height="11.052380952380952"></rect><rect shape-rendering="optimizeSpeed" fill="#000" x="108.57142857142857" y="185.23809523809524"  width="11.052380952380952" height="11.052380952380952"></rect><rect shape-rendering="optimizeSpeed" fill="#000" x="119.52380952380952" y="185.23809523809524"  width="11.052380952380952" height="11.052380952380952"></rect><rect shape-rendering="optimizeSpeed" fill="#000" x="141.42857142857144" y="185.23809523809524"  width="11.052380952380952" height="11.052380952380952"></rect><rect shape-rendering="optimizeSpeed" fill="#000" x="152.38095238095238" y="185.23809523809524"  width="11.052380952380952" height="11.052380952380952"></rect><rect shape-rendering="optimizeSpeed" fill="#000" x="174.28571428571428" y="185.23809523809524"  width="11.052380952380952" height="11.052380952380952"></rect><rect shape-rendering="optimizeSpeed" fill="#000" x="10" y="196.1904761904762"  width="11.052380952380952" height="11.052380952380952"></rect><rect shape-rendering="optimizeSpeed" fill="#000" x="31.904761904761905" y="196.1904761904762"  width="11.052380952380952" height="11.052380952380952"></rect><rect shape-rendering="optimizeSpeed" fill="#000" x="42.85714285714286" y="196.1904761904762"  width="11.052380952380952" height="11.052380952380952"></rect><rect shape-rendering="optimizeSpeed" fill="#000" x="53.80952380952381" y="196.1904761904762"  width="11.052380952380952" height="11.052380952380952"></rect><rect shape-rendering="optimizeSpeed" fill="#000" x="75.71428571428572" y="196.1904761904762"  width="11.052380952380952" height="11.052380952380952"></rect><rect shape-rendering="optimizeSpeed" fill="#000" x="97.61904761904762" y="196.1904761904762"  width="11.052380952380952" height="11.052380952380952"></rect><rect shape-rendering="optimizeSpeed" fill="#000" x="218.0952380952381" y="196.1904761904762"  width="11.052380952380952" height="11.052380952380952"></rect><rect shape-rendering="optimizeSpeed" fill="#000" x="10" y="207.14285714285714"  width="11.052380952380952" height="11.052380952380952"></rect><rect shape-rendering="optimizeSpeed" fill="#000" x="31.904761904761905" y="207.14285714285714"  width="11.052380952380952" height="11.052380952380952"></rect><rect shape-rendering="optimizeSpeed" fill="#000" x="42.85714285714286" y="207.14285714285714"  width="11.052380952380952" height="11.052380952380952"></rect><rect shape-rendering="optimizeSpeed" fill="#000" x="53.80952380952381" y="207.14285714285714"  width="11.052380952380952" height="11.052380952380952"></rect><rect shape-rendering="optimizeSpeed" fill="#000" x="75.71428571428572" y="207.14285714285714"  width="11.052380952380952" height="11.052380952380952"></rect><rect shape-rendering="optimizeSpeed" fill="#000" x="97.61904761904762" y="207.14285714285714"  width="11.052380952380952" height="11.052380952380952"></rect><rect shape-rendering="optimizeSpeed" fill="#000" x="119.52380952380952" y="207.14285714285714"  width="11.052380952380952" height="11.052380952380952"></rect><rect shape-rendering="optimizeSpeed" fill="#000" x="141.42857142857144" y="207.14285714285714"  width="11.052380952380952" height="11.052380952380952"></rect><rect shape-rendering="optimizeSpeed" fill="#000" x="163.33333333333334" y="207.14285714285714"  width="11.052380952380952" height="11.052380952380952"></rect><rect shape-rendering="optimizeSpeed" fill="#000" x="196.1904761904762" y="207.14285714285714"  width="11.052380952380952" height="11.052380952380952"></rect><rect shape-rendering="optimizeSpeed" fill="#000" x="207.14285714285714" y="207.14285714285714"  width="11.052380952380952" height="11.052380952380952"></rect><rect shape-rendering="optimizeSpeed" fill="#000" x="10" y="218.0952380952381"  width="11.052380952380952" height="11.052380952380952"></rect><rect shape-rendering="optimizeSpeed" fill="#000" x="75.71428571428572" y="218.0952380952381"  width="11.052380952380952" height="11.052380952380952"></rect><rect shape-rendering="optimizeSpeed" fill="#000" x="97.61904761904762" y="218.0952380952381"  width="11.052380952380952" height="11.052380952380952"></rect><rect shape-rendering="optimizeSpeed" fill="#000" x="108.57142857142857" y="218.0952380952381"  width="11.052380952380952" height="11.052380952380952"></rect><rect shape-rendering="optimizeSpeed" fill="#000" x="152.38095238095238" y="218.0952380952381"  width="11.052380952380952" height="11.052380952380952"></rect><rect shape-rendering="optimizeSpeed" fill="#000" x="163.33333333333334" y="218.0952380952381"  width="11.052380952380952" height="11.052380952380952"></rect><rect shape-rendering="optimizeSpeed" fill="#000" x="185.23809523809524" y="218.0952380952381"  width="11.052380952380952" height="11.052380952380952"></rect><rect shape-rendering="optimizeSpeed" fill="#000" x="229.04761904761904" y="218.0952380952381"  width="11.052380952380952" height="11.052380952380952"></rect><rect shape-rendering="optimizeSpeed" fill="#000" x="10" y="229.04761904761904"  width="11.052380952380952" height="11.052380952380952"></rect><rect shape-rendering="optimizeSpeed" fill="#000" x="20.952380952380953" y="229.04761904761904"  width="11.052380952380952" height="11.052380952380952"></rect><rect shape-rendering="optimizeSpeed" fill="#000" x="31.904761904761905" y="229.04761904761904"  width="11.052380952380952" height="11.052380952380952"></rect><rect shape-rendering="optimizeSpeed" fill="#000" x="42.85714285714286" y="229.04761904761904"  width="11.052380952380952" height="11.052380952380952"></rect><rect shape-rendering="optimizeSpeed" fill="#000" x="53.80952380952381" y="229.04761904761904"  width="11.052380952380952" height="11.052380952380952"></rect><rect shape-rendering="optimizeSpeed" fill="#000" x="64.76190476190476" y="229.04761904761904"  width="11.052380952380952" height="11.052380952380952"></rect><rect shape-rendering="optimizeSpeed" fill="#000" x="75.71428571428572" y="229.04761904761904"  width="11.052380952380952" height="11.052380952380952"></rect><rect shape-rendering="optimizeSpeed" fill="#000" x="97.61904761904762" y="229.04761904761904"  width="11.052380952380952" height="11.052380952380952"></rect><rect shape-rendering="optimizeSpeed" fill="#000" x="108.57142857142857" y="229.04761904761904"  width="11.052380952380952" height="11.052380952380952"></rect><rect shape-rendering="optimizeSpeed" fill="#000" x="119.52380952380952" y="229.04761904761904"  width="11.052380952380952" height="11.052380952380952"></rect><rect shape-rendering="optimizeSpeed" fill="#000" x="130.47619047619048" y="229.04761904761904"  width="11.052380952380952" height="11.052380952380952"></rect><rect shape-rendering="optimizeSpeed" fill="#000" x="152.38095238095238" y="229.04761904761904"  width="11.052380952380952" height="11.052380952380952"></rect><rect shape-rendering="optimizeSpeed" fill="#000" x="163.33333333333334" y="229.04761904761904"  width="11.052380952380952" height="11.052380952380952"></rect><rect shape-rendering="optimizeSpeed" fill="#000" x="185.23809523809524" y="229.04761904761904"  width="11.052380952380952" height="11.052380952380952"></rect><rect shape-rendering="optimizeSpeed" fill="#000" x="196.1904761904762" y="229.04761904761904"  width="11.052380952380952" height="11.052380952380952"></rect></svg>